<?xml version="1.0" encoding="utf-8"?>
<!-- Generator: Adobe Illustrator 15.0.0, SVG Export Plug-In . SVG Version: 6.00 Build 0)  -->
<!DOCTYPE svg PUBLIC "-//W3C//DTD SVG 1.1//EN" "http://www.w3.org/Graphics/SVG/1.1/DTD/svg11.dtd">
<svg version="1.1" id="Layer_1" xmlns="http://www.w3.org/2000/svg" xmlns:xlink="http://www.w3.org/1999/xlink" x="0px" y="0px"
	 width="841.89px" height="595.28px" viewBox="0 0 841.89 595.28" enable-background="new 0 0 841.89 595.28" xml:space="preserve">
<path fill="#010202" d="M822.455,551.403c-4.848,0.341-9.813-0.473-14.746,0c-7.948,0.735-18.814-0.078-28.042,0.716
	c-7.021,0.595-13.884,0.263-20.328,0.528c-2.418,0.107-5.179,0.056-7.556,0.361c-7.276,0.97-17.492,0.535-25.707,1.271
	c-6.467,0.576-12.965-0.191-19.062,1.254c-5.263,0.664-11.451,0.238-17.802,0.535c-4.22,0.2-9.121,0.384-12.765,0.725
	c-12.485,1.171-24.324,0.669-36.861,1.8c-6.726,0.61-13.641-0.062-20.149,0.544c-2.373,0.212-4.976-0.254-7.192,0.896
	c-12.646-0.95-27.933-0.716-40.634,0c-0.818,0.341-0.243-0.716-0.906-0.535c-12.081-0.192-25.176-0.393-36.671-1.449
	c-3.74-0.337-7.683,0.874-11.154,0c-0.192-0.043-0.66-0.5-0.895-0.529c-3.815-0.575-7.671,0.424-11.337,0
	c-0.844,0.295-0.234-0.856-1.075-0.546c-7.832-0.021-15.652-0.393-23.377,0c-1.055,0.586-4.069,0.981-5.037,0
	c-5.031,0.132-8.63-1.202-13.853-0.905c-0.808,0.341-0.232-0.716-0.895-0.535c-5.263,0.461-10.59-0.606-15.107-1.073
	c-1.481-0.16-3.058,0.152-4.487,0c-2.556-0.289-5.06-0.716-7.553-0.907c-2.121-0.16-4.208,0.223-6.295,0
	c-1.472-0.16-3.367-0.341-5.573-0.544c-4.712-0.415-9.481-0.564-14.203-1.072c-0.713-0.088-1.438-0.451-2.163-0.533
	c-3.74-0.473-7.618,0.767-11.324-0.556c-5.682,0.012-11.85-0.704-17.273-0.896c-1.989-0.062-4.079,0.259-5.921,0
	c-0.459-0.062-0.64-0.415-1.088-0.533c-1.47-0.405-3.142-0.042-4.315,0.533c-7.629,0.212-13.724-1.13-21.212-1.072
	c-0.823,0.325-0.247-0.716-0.905-0.544c-6.085,0.435-11.923-0.778-18.156-0.896c-2.856-0.062-6.572,0.424-8.458-0.544
	c-3.528-0.607-7.671,0.149-10.965-0.529c-0.586-0.129-0.683-0.249-1.086-0.544c-27.297-0.586-53.292-2.453-80.544-3.06
	c-0.854-0.31-0.248,0.841-1.09,0.544c-7.308-0.247-12.708,1.428-19.782,1.428c-8.387,1.632-17.496,2.533-27.872,2.161
	c-0.703-0.286-0.364,0.461-0.714,0.532c-7.298,0-19.167-0.203-28.769,0.728c-4.995,0.475-10.14-0.271-15.106,0.181
	c-9.814,0.881-19.615,0.646-29.855,1.605c-10.269,0.97-20.785,0.928-31.289,0.907c-0.854-0.254-0.448,0.759-1.247,0.535H54.818
	c-0.843-0.301-0.234,0.85-1.086,0.554c-6.924-0.33-13.297,0.829-19.606,0.528c-0.626-2.201,0.279-4.389,0.908-5.935
	c-0.288-2.457-2.079-5.836,0-7.541c-0.353-1.605-0.841-3.047-0.533-4.857c0.105-0.662,0.533-1.077,0.533-1.802
	c0-0.789-0.437-1.385-0.533-2.163c-0.363-2.622-0.056-5.699,0-8.447c0.065-4.509,0.085-8.257,0.533-12.586
	c-0.468-0.424-0.576-1.222-1.075-1.616c0.192-3.974-0.149-7.406-0.725-10.6c0.818-0.575,1.084-1.684,1.8-2.348
	c-0.065-0.638-1.003-1.14-1.075-2.333c-0.064-1.088,1.021-2.212,1.075-3.43c0.031-0.789-0.321-1.235-0.533-1.971
	c-0.096-0.299,0.127-0.917,0-1.258c-0.127-0.308-0.5-0.254-0.542-0.54c-0.256-1.569-0.247-3.871,0-5.572
	c0.062-0.408,0.455-0.886,0.542-1.26c0.66-3.098-0.691-6.146-0.542-8.64c0.103-1.768,1.222-3.302,0.711-5.028
	c0.384-0.928-0.917-0.169-0.711-0.905c0.136-1.405-0.417-3.525,0.542-4.137c-0.35-4.747,1.075-8.853,0-13.306
	c-0.116-0.455-0.47-0.917-0.542-1.43c-0.281-2.022,0.52-4.474,0-6.837c-0.225-0.99-0.747-0.99-1.079-1.97
	c0.586-1.814,1.387-3.409,1.079-6.116c-0.439-0.714-1.418-0.874-1.802-1.633c0.426-1.628,0.107-1.918,0.723-3.229
	c0.087-0.928-0.595-1.084-0.544-1.98c0.867-2.513-0.232-6.317,1.623-8.086c-0.12-3.398,0.179-6.768,0-9.718
	c-0.896-0.415-0.947-1.695-1.623-2.333c0.439-0.636,0.812-1.342,1.623-1.621c0.319-2.908-0.225-5.74-0.544-7.914
	c-0.203-1.354,0.127-3.322-0.181-4.846c-0.279-1.398-1.322-2.357-0.898-3.421c0.823-2.059,1.886-4.582,1.623-7.905
	c-0.363-4.442-0.876-9.417-0.544-14.575c-0.161-0.62-0.979-0.563-1.088-1.26c-0.406-1.67,0.468-3.058-0.169-4.674
	c-0.513-0.696-1.523-0.888-2.344-1.26c0.513-4.451,1.96-8.777,1.088-13.124c-1.695-0.555-2.654-3.815-0.544-4.681
	c-0.268-2.042,1.16-3.28,0-4.665c1.382-2.524-0.223-6.913,0.722-9.174c-0.818-0.808-1.354-1.896-1.799-3.058
	c0.553-0.938,0.254-2.747,1.077-3.42c-0.479-1.938,0.892-3.386,0-4.131c-0.214-0.876,0.827-0.492,0.544-1.442
	c0.178-1.041-0.64-1.434-0.727-2.333c-0.064-0.691,0.364-1.424,0.364-2.16c0-0.648-0.504-1.28-0.533-1.971
	c-0.042-0.621,0.341-1.419,0.353-2.166c0.031-1.445-0.214-2.896,0-4.13c0.308-1.784,1.619-4.125,1.083-6.661
	c-0.125-0.575-0.731-1.065-0.903-1.607c-0.468-1.47,0.096-3.133-0.725-4.507c0.212-0.693,0.66-1.142,1.088-1.608
	c-0.192-2.439-0.161-5.468,1.075-7.375c-0.479-1.545-1.075-3.048-1.075-4.676c-0.013-1.875,1.086-3.782,1.075-5.582
	c0-0.653-0.439-1.14-0.535-1.793c-0.212-1.298,0.248-2.865-0.54-3.96c-0.013-0.493,0.435-0.908,0.54-1.44
	c0.141-0.787-0.361-1.481-0.361-2.504c-0.011-1.597,0.524-3.164,0.361-4.324c-0.256-1.759-1.244-3.387-1.083-5.395
	c0.06-0.818,0.544-1.597,0.544-2.341c0-2.333-1.664-4.645,0-6.647c-0.803-3.249,1.374-5.508,0.178-8.271
	c0.821-2.576,0.149-5.762-0.542-7.914c0.084-2.77,0.756-5.838,0.363-9.174c-0.183-1.512-1.378-3.483-1.088-5.026
	c0.192-1.046,0.596-2.397,0.544-3.604c-0.096-2.404-1.302-3.844,1.083-4.663c-0.54-0.62-0.316-1.525-0.54-2.346
	c-0.192-0.671-0.64-1.182-0.727-1.802c-0.332-2.502,0.576-5.198,0.183-7.914c-0.067-0.448-0.459-0.787-0.544-1.26
	c-0.47-2.641,0.469-5.441,0-8.086c-0.662-0.968-1.596-1.14-2.152-2.333c-0.8-1.726-0.171-4.507-1.802-5.582
	c0.555-8.12-0.383-16.344,0.353-24.635c0.533-5.827,1.117-13.199,0-18.524c0.682-3.08-0.694-5.925-0.169-8.982
	c0.104-0.665,0.584-1.385,0.722-2.166c0.085-0.551-0.138-1.287,0-1.8c0.118-0.477,0.502-0.758,0.533-1.257
	c0.042-0.895-0.404-1.298-0.533-2.154c-0.107-0.636,0.065-1.362,0-2.161c-0.083-0.839-0.531-1.797-0.553-2.513
	c-0.034-1.427,0.479-2.536,0.361-4.315c-0.542-8.427-1.066-17.815-0.714-28.053c0.339-0.883-0.595-0.479-0.544-1.086
	c-0.127-2.589,0.299-4.616,0.183-7.192c-1.278-1.235-0.521-4.52-0.713-6.83c1.235-1.151,1.106-3.675,2.696-4.496
	c1.887,0.042,3.76,1.182,5.934,1.077c0.691-0.034,1.267-0.428,1.969-0.531c4.328-0.665,9.825,0.435,13.489-0.546
	c0.353-0.087,0.928,0.138,1.258,0c0.384-0.149,0.234-0.482,0.544-0.533c2.184-0.395,4.101-0.341,5.753-1.438
	c1.171-0.417,1.63,0.35,2.342,0.53c0.363,0.098,0.938-0.103,1.247,0c0.747,0.261,1.184,0.812,1.982,0.908
	c0.95,0.109,2.888-0.096,3.954-0.363c0.296-0.071,0.618-0.5,0.896-0.544c1.873-0.274,3.664,0.203,5.762,0
	c2.268-0.99,7.66-1.213,10.791-1.617c4.839-0.615,9.91,0.596,14.386,0c0.649-0.084,1.342-0.513,1.971-0.533
	c1.033-0.054,1.971,0.501,2.886,0.533c2.75,0.116,5.126-0.807,8.086-0.533c0.852,0.736,4.219,0.905,5.031,0
	c5.677-0.406,9.865,0.685,15.286,0.533c0.823,0.344,0.248-0.716,0.896-0.533c6.744,0.66,12.082,0.009,19.243-0.363
	c0.958,0.363,0.435-0.768,1.267-0.544c1.813,0.161,4.379-0.426,5.392,0.544c6.041-0.373,12.04,0.736,17.26,0
	c0.618-0.094,1.16-0.446,1.8-0.544c3.133-0.415,6.884-0.178,10.251-0.35c2.174-0.116,4.027,0.116,6.115,0.35
	c1.385,0.161,3.11-0.426,3.771,0.544h7.011c5.7-2.11,14.276,0.685,20.498-1.086c0.959-0.359,0.439,0.778,1.269,0.542
	c9.419-0.125,18.538,0.034,27.326,0.544c0.843,0.301,0.236-0.841,1.088-0.544h7.011c0.843-0.296,0.232,0.845,1.075,0.544
	c3.472-0.415,7.076-0.714,11.157-0.544c2.152,1.164,6.924,1.523,9.161,0.181c4.157-0.314,10.251,1.22,14.927,0.544
	c0.694-0.091,1.269-0.595,1.974-0.725c2.333-0.403,5.849-0.02,7.383,0.544c7.094-0.011,13.752,0.268,20.485-0.364
	c3.412-0.314,7.523-0.658,10.976-0.181c0.511,0.078,0.586,0.406,1.075,0.544c0.81,0.211,3.209,0.493,4.146,0.544
	c2.172,0.12,4.792,0.031,7.009-0.181c1.835-0.183,3.562-1.086,5.395-1.258c2.109-0.203,4.547-0.212,6.828,0
	c4.772,0.428,9.502-0.245,14.211,0.35c0.629,0.087,1.162,0.451,1.791,0.544c3.28,0.493,6.627-0.373,10.079,0
	c0.5-0.703,2.079-0.308,2.694-0.895c7.245,1.097,17.592-0.5,24.996,0.895c2.578-1.171,5.615-0.139,8.802-0.544
	c0.5-0.062,0.892-0.426,1.447-0.542c2.397-0.468,6.224,0,9.524,0c4.495,0,8.491-0.372,11.146,0.542c2.278-0.074,5.169,0.118,7.744,0
	c0.575-0.02,1.963,0.417,1.972-0.542c0.735,0.875,2.631,1.534,3.953,0.723c0.649,0.395,1.535,0.645,2.335,0.727
	c6.828,0.66,16.085-0.223,22.659-0.363c8.565-0.274,16.653,1.652,24.099-0.364c5.948,1.655,13.427-0.446,19.414,1.088
	c10.334-1.019,20.766-0.424,31.652-0.725c1.396-0.042,2.846,0.321,4.315,0.363c1.619,0.031,3.293-0.192,4.679,0
	c0.426,0.051,0.628,0.415,1.074,0.533c2.516,0.669,5.723-0.917,7.917,0.544c2.205-1.088,5.849-0.118,7.905-0.544
	c1.96,0.274,4.026,0.703,6.297,1.086c2.705,0.448,5.723-0.438,8.088-0.542c1.958-0.087,3.749,0.223,5.763,0
	c8.001-0.876,16.822,0.265,24.993,0.35c2.865-0.915,5.767,1.14,8.269-0.895c2.355,0.939,6.19,0.404,9.355,0.544
	c0.457,0.787,2.365,0.138,2.693,1.072c0.983-0.551,2.685-0.829,3.604,0c0.64,0.172,0.073-0.87,0.895-0.542
	c5.211-0.915,9.6,0.248,14.021-0.531c6.552-0.428,11.324,1.021,17.441,0.531c4.836,1.953,11.602-1.343,16.363,0.542
	c0.332-0.392,0.716-0.446,1.26-0.542c3.779-0.66,8.286,0.31,10.972,1.086c0.532-0.062,0.341-0.858,1.267-0.544
	c3.762,0.034,5.744,0.192,9.346,0c0.733,0.141,0.542-0.646,1.258-0.542c1.447,0.118,3.461-0.348,4.132,0.542
	c1.015-0.575,4.114-1.01,5.042,0c5.729,0.098,8.83,0.896,14.381,0.544c3.687-0.232,7.245,0.281,10.61,0
	c0.888,0.343,0.479-0.596,1.079-0.544c2.003,0.281,5.153-0.595,6.284,0.544c1.523-0.533,6.554-1.03,9.174-0.544
	c0.691,0.129,1.362,0.778,1.982,0.896c1.577,0.324,3.056-0.361,4.315,0.183c0.959,0.544,0.733,3.664,1.074,5.934
	c1.12,7.586,0.95,17.017,1.619,24.993c0.33,3.954,0.725,9.516,1.077,13.491c0.671,7.455,0.276,15.318,0.903,22.661
	c1.897,22.105,1.503,43.661,2.698,64.544c-0.353,3.354,0.395,6.474,0.723,9.712c0.31,3.124,0.268,6.386,0.716,9.526
	c0.073,0.479,0.426,0.778,0.542,1.271c0.321,1.5,0.02,3.171,0.181,4.674c0.439,4.103,0.106,8.238,0.544,12.223
	c0.874,8.126,1.769,16.812,2.867,24.458c0.799,5.479,0.681,11.114,1.438,16.54c1.543,10.982,2.736,23.225,4.133,34.881
	c0.35,2.93,0.202,6.935,1.086,9.713c0.619,8.994,0.343,18.583,1.258,27.694c0.299,3.023-0.076,6.105,0.18,8.991
	c0.449,4.997,1.483,9.693,1.974,14.203c0.616,5.55,0.105,11.25,0.542,16.725c0.257,3.164,0.79,6.232,1.089,9.346
	c0.254,2.812-0.161,5.664,0.181,8.458c1.427,11.859,1.331,23.194,3.407,34.34c0.056,4.047,0.535,7.457,0.907,11.323
	c0.191,2.09,0.863,4.116,1.075,6.117c0.234,2.16-0.085,4.462,1.077,6.297c0.33,16.631,0.212,33.711,1.982,48.901
	c0.06,4.069,0.073,8.206,1.074,11.326c-0.212,4.368,0.396,7.883,0.364,12.06c-0.333,0.81,0.711,0.245,0.539,0.898
	C821.316,534.268,823.127,543.017,822.455,551.403 M428.119,367.083c-0.615-5.37,0.419-12.305-0.361-18.163
	c-0.395-2.941-1.461-5.316-1.8-7.735c-0.744-0.799-1.023-2.09-1.438-3.229c-1.952-1.405-3.74-2.971-6.287-3.782
	c-5.125-1.184-12.062-0.428-16.185,0.181c0,0.183,0.14,0.217,0.171,0.361c-1.182-0.446-0.97,0.181-1.438,0.544
	c-0.596-0.426-3.537,0.109-2.685,1.077c-1.108-0.744-2.428,0.928-3.962,0.905c-0.065,0.308,0.265,0.46,0,0.531
	c-0.598-0.232-1.644,0.633-2.163,1.079c-2.322,0.736-4.391,1.726-6.106,3.068c-0.758-0.096-1.001,0.308-1.621,0.361
	c-0.415,0.062-0.243,0.714-0.54,0.886c0.181-0.533-0.406-0.311-0.716-0.351c-0.062,0.351,0.245,0.351,0.352,0.542
	c-2.74,0.234-4.007,2.354-6.297,2.513c-0.158,0.33,0.555,0.609,0,0.723c-1.811,0.034-3.088,2.168-5.39,2.335
	c0.201,0.914-1.142,0.288-1.077,1.077c-1.503,0-2.206,0.796-3.057,1.44c-3.017,0.808-5.231,2.041-7.555,2.694
	c-4.464-2.42-6.03-7.747-10.96-9.707c-1.079-1.608-3.2-2.866-5.211-3.602c-2.324-0.83-5.423-1.501-8.641-1.075
	c-4.921,0.649-11.092,5.348-14.383,8.086c-2.226,1.854-4.656,4.262-6.117,6.298c-2.31,2.12-4.184,4.685-5.923,7.381
	c-4.986,4.253-8.097,10.367-12.956,14.735c-4.132,3.058-9.256,5.127-16.002,5.582c-3.824-2.281-2.034-7.615-1.619-12.051
	c0.265-2.747-0.138-5.676-0.361-8.095c-0.201-2.192-0.022-4.347-0.364-6.289c-0.713-4.239-2.78-8.618-4.676-11.335
	c-1.398-2.011-3.207-3.482-4.851-4.856c-2.397-0.64-4.814-1.3-7.914-1.258c-0.575-0.223-0.127,0.584-0.713,0.361
	c-1.021-0.254-1.8,0.312-2.696,0.544c-4.549,1.142-8.777,3.836-10.791,7.363c-1.503,2.641-2.292,5.626-3.773,7.917
	c-2.323,3.576-5.209,6.433-7.916,9.535c0.138,0.542-0.31,0.52-0.181,1.074c-1.949,0.863-1.695,3.945-4.132,4.315
	c-0.036-4.839,0.125-9.473-0.544-14.203c-0.758-2.386-1.385-4.91-2.333-7.009c-1.1-2.431-2.27-5.197-4.859-5.572
	c-4.23-0.629-6.393,3.187-9.346,4.848c-0.841,1.78-2.192,3.249-3.418,4.677c-1.267,1.47-2.366,3.164-3.952,4.314
	c-0.896,1.619-1.782,3.271-3.06,4.496c-2.002,5.021-4.453,9.568-7.191,13.853c-1.855-1.963-0.629-7.276-0.361-10.805
	c0.626-8.319-0.308-15.886-1.982-22.288c-0.914-1.597-2.544-2.493-3.954-3.604c-8.148-1.254-11.549,2.591-17.258,4.147
	c-1.545,0.415-3.316,0.424-4.859,0.361c-2.014-0.118-3.515-0.787-4.857-1.269c-0.504-0.181-1.035-0.181-1.432-0.364
	c-1.713-0.775-4.271-2.513-6.293-2.876c-5.829-1.021-10.528,0.374-11.337,4.5c-0.81,4.188-0.8,10.004-0.533,14.928
	c1.587,3.15,5.37,3.26,8.993,3.949c5.526,1.057,5.071,6.509,3.599,11.687c-3.76,5.297-6.306,11.808-13.315,13.853
	c-6.788,0.297-10.699-4.103-11.689-9.354c-1.066-5.711,2.587-10.748,4.676-14.744c1.545-4.509,0.959-12.511-2.152-15.1
	c-2.524-0.254-3.1,1.463-4.859,1.97c-3.345,5.47-8.202,9.421-11.143,15.279h-0.544c-0.683,2.676-2.674,4.05-3.418,6.649
	c-1.94,1.534-2.95,4.019-5.211,5.221c-1.47,2.556-2.09,6.148-4.676,7.372c-0.468-7.212,0.937-16.323,0.181-24.449
	c-0.596-6.396-2.065-12.093-3.771-17.079c-3.122-3.421-5.869-7.205-12.956-6.661c-0.776,0.638-1.235,0.896-2.335,0.907
	c-1.958,1.098-3.004,3.111-6.112,3.058c-1.331-2.45-1.982-5.508-1.26-8.63c0.171-0.756,0.533-2.143,0.896-3.068
	c0.279-0.683,1.331-1.418,1.621-2.152c0.221-0.566,0-1.105,0.181-1.438c0.308-0.556,1.255-1.002,1.619-1.621
	c0.192-0.34,0.159-0.811,0.35-1.075c2.003-2.674,4.476-4.815,5.934-7.194c0.651-2.504,0.256-4.865,0.544-7.369
	c0.725-6.287,3.889-9.124,8.097-11.871c2.386-1.565,5.127-3.006,7.725-3.773c1.289-1.298,3.037-2.129,4.679-3.057
	c0.33-0.203,0.383-0.7,0.722-0.901c3.633-1.686,6.596-4.074,9.888-6.117c2.527-1.003,4.676-2.391,7.192-3.41
	c6.201-3.922,14.457-5.713,22.119-7.738c0.968-0.254,1.851-0.042,2.876-0.178c5.263-0.682,12.615-0.45,17.974-1.077
	c7.372-0.863,11.591-5.135,17.815-6.649c3.452-0.85,6.891-1.354,10.068-1.98c2.161-0.586,4.164-1.61,6.284-2.513
	c1.63-0.705,3.793-0.395,5.762-0.727c2.941-0.479,5.925-1.425,9.165-1.255c0.66-0.6,2.014-0.501,3.238-0.542
	c0.598-0.609,1.874-0.513,3.06-0.535c3.992-0.807,7.787-1.799,11.866-2.524c4.583-2.591,10.144-3.71,15.643-4.848
	c2.469-0.522,5.923-0.723,9.353-0.723c14.896,0,30.673,0.564,42.98-1.624c10.271-1.072,22.139-1.726,31.824-0.169
	c6.212,0.981,13.105,0.169,19.592,0.885c1.639,0.192,3.111,0.756,4.676,0.908c4.049,0.384,8.11,0.286,12.051,0.181
	c2.141,1.929,6.117-0.056,8.46,1.617c4.631-0.736,12.495,0.727,18.152,1.26c6.692,0.627,14.6-0.278,20.5,0.711
	c1.215,0.214,2.25-0.361,3.421-0.35c0.863,0.009,1.791,0.488,2.696,0.542c1.79,0.098,3.663-0.192,5.22,0
	c13.819,1.577,26.254,4.549,37.577,8.449c0.606,0.236,1.258-0.406,1.438,0c-1.063,0.236,0.693-0.064,0.363,0.533
	c1.075-0.276,1.904,0.513,2.877,0.725c4.397,0.99,9.479,1.374,14.02,1.98c11.092,1.472,22.534-0.892,31.652-3.238
	c6.936-0.789,12.361-3.102,19.956-3.238c7.226-1.771,16.014-1.962,21.225-5.753c15.938-4.87,32.078-9.515,48.007-14.383
	c2.355-1.715,5.987-2.174,8.63-3.599c0.268-0.281,0.926-0.161,1.438-0.171c0.158-0.448,0.672-0.544,0.905-0.908
	c5.999-2.089,11.177-5.006,16.003-8.278c1.15-1.811,2.408-3.729,2.695-6.286c0.266-2.408-0.011-6.095-0.542-7.733
	c-0.513-1.579-1.26-3.238-1.974-4.67c-1.182-2.384-3.739-3.847-4.495-6.306c-4.135-2.876-7.308-6.71-12.051-8.978
	c-1.246-2.54-3.035-4.52-4.495-6.833c-1.566-0.776-2.781-1.896-3.952-3.057c-1.514-0.852-3.291-1.312-4.856-2.161
	c-0.353-0.191-0.544-0.727-0.896-0.896c-0.566-0.277-1.247-0.141-1.802-0.364c-1.075-0.446-2.226-1.255-3.419-1.799
	c-2.154-1.001-3.815-1.844-5.392-2.877c-0.672-0.437-1.481-0.693-1.98-1.077c-1.14-0.894-2.014-2.192-2.877-3.057
	c-0.97-0.981-1.737-1.374-2.513-2.516c-0.279-0.403-0.301-1.128-0.544-1.434c-0.107-0.163-0.415,0.02-0.535-0.192
	c-0.351-0.566-0.819-1.389-1.087-1.976c-1.012-2.244-0.902-4.442-1.438-7.551c-0.596-3.572-2.302-6.512-3.058-10.251
	c-0.683,0.022-0.363-0.948-0.895-1.075c-1.235-6.032-6.509-11.763-4.858-19.605c0.619-2.919,2.78-5.178,3.601-8.267
	c1.143-0.841,1.813-2.152,2.333-3.599c1.525-1.292,1.909-3.731,3.782-4.681c0.862-2.854,3.657-3.771,5.392-5.753
	c4.186-2.462,8.885-4.42,13.487-6.465c0.287-0.863,1.246-1.035,1.802-1.621c4.165,0.031,7.68-0.595,11.688-0.725
	c0.428,0.078-0.107-0.818,0.532-0.531c6.788-0.714,12.841-2.154,19.421-3.068c3.624-1.706,8.812-1.854,11.87-4.124
	c0.226-0.321,0.033-1.055,0.363-1.26c2.291-1.309,3.749-3.438,5.754-5.038c0.499-1.768,1.215-3.343,0.894-5.936
	c-0.501-0.444-0.82-1.084-0.894-1.978c-8.237-6.576-21.631-7.983-35.787-8.63c-8.694,2.212-15.738,6.072-24.101,8.63
	c-0.748,1.233-2.772,1.171-3.771,2.161c-2.109,0.201-3.176,1.28-4.679,1.969c-2.118,0.992-4.143,1.804-6.114,2.526
	c-1.885,0.691-3.911,1.066-5.572,1.791c-3.303,1.449-5.627,4.208-8.631,5.764c0.065,0.596-0.308,0.756-0.532,1.075
	c-2.152,1.61-4.519,3.485-6.296,5.211c-0.608,0.575-1.161,1.13-1.621,1.617c-2.406,2.582-4.484,4.966-6.478,7.735
	c-1.066,1.492-2.014,2.643-2.877,4.315c-0.415,0.809-0.938,1.768-1.255,2.515c-0.95,2.217-0.598,4.581-0.895,7.553
	c-0.471,4.592-2.516,8.545-3.967,12.582c-0.232,0.685-0.105,1.472-0.349,2.166c-0.129,0.328-0.704,0.64-0.907,1.075
	c-0.234,0.524-0.127,1.215-0.361,1.619c-0.118,0.225-0.768,0.47-0.896,0.725c-0.575,1.097-0.747,2.462-1.256,3.59
	c-0.938,2.069-2.377,3.922-2.695,6.117c-2.045,2.217-3.305,5.209-5.223,7.551c0.045,0.758-0.455,0.972-0.359,1.804
	c-2.422,1.653-3.604,4.516-5.572,6.648c-1.077,1.175-2.665,1.692-3.602,3.059c-0.727,0.167-1.289,0.5-1.791,0.892
	c-2.867,0.426-5.711,1.503-8.812,1.088c-3.481-0.481-5.537-2.714-6.828-5.22c-2.215-9.961-1.735-24.644-1.619-35.243
	c-0.671-4.125-0.671-8.909-1.621-12.767c-1.159-1.128-2.109-2.576-3.058-3.782c-0.657-0.83-1.309-1.557-1.969-2.333
	c-0.863-1.001-1.162-1.001-2.163-1.619c-0.789-0.491-1.565-1.726-2.163-2.163c-2.598-0.79-5.711-0.863-8.269,0
	c-0.466,1.035-1.713,1.184-2.514,1.802c-2.928,2.27-4.74,5.934-6.478,9.174c-1.14,2.129-2.694,4.09-3.602,6.284
	c-1.427,0.903-1.842,2.833-3.409,3.61c0.169,1.015-0.818,1.218-1.258,1.974c-0.469,0.798-0.455,1.884-0.903,2.696
	c-0.248,0.455-0.843,0.733-1.077,1.253c-0.201,0.448,0,0.99-0.181,1.443c-0.247,0.626-0.823,1.191-1.075,1.797
	c-0.959,2.186-1.644,4.284-2.346,6.469c-0.947,3.004-1.514,6.219-2.513,9.354c-0.311,0.959-0.95,1.789-1.258,2.705
	c-0.596,1.726-0.812,3.655-1.258,5.209c-0.406,1.394-1.269,2.25-1.63,3.24c-0.479,1.363-0.502,2.826-0.886,4.121
	c-0.778,0.439-1.097,1.32-1.086,2.527c-0.702-0.045-0.33,0.992-1.086,0.894c-1.472,4.411-4.123,7.618-7.544,10.08
	c-1.949-0.118-4.081,0.022-5.934-0.544c-3.912-3.537-6.128-8.737-7.375-14.927c-0.479-6.467-0.2-13.092,0-19.782
	c0.406-0.064,0.236-0.716,0.535-0.896c-0.106-4.007,1.131-6.669,2.161-9.524c0.778-6.32,0.704-13.884-3.591-16.194
	c-7.499-0.544-11.419,2.502-15.107,5.763c-1.862,3.708-3.94,7.205-5.218,11.506c-0.874,0.736-1.46,1.769-1.802,3.057
	c-0.97,0.747-1.771,1.695-2.333,2.877c-1.652,0.504-2.315,2.005-4.137,2.333c-1.585,1.655-3.417,3.048-5.038,4.681
	c-1.587,1.608-3.305,3.227-4.484,5.209c-5.029,4.442-8.11,10.833-13.32,15.108c-0.031,1.213-1.331,1.17-1.438,2.333
	c-2.736,1.405-4.527,3.737-7.373,5.038c-2.205,1.748-4.25,3.655-7.544,4.317c-0.274,0.81-1.354,0.798-1.799,1.436
	c-1.588-0.094-2.067,0.928-3.602,0.896c-3.164,2.344-8.811,2.214-13.125,3.421c-6.541,0.5-12.795-0.067-18.335-1.077
	c-5.338-4.101-1.237-13.542,0.353-18.348c0.403-1.213,0.479-2.587,0.903-3.769c0.16-0.471,0.727-0.937,0.894-1.44
	c0.918-2.556,1.534-4.355,2.165-6.478c0.649,0.056,0.479-0.711,1.075-0.723c2.729-5.234,7-8.94,10.068-13.841
	c2.25-1.225,3.739-3.205,5.39-5.04c0.439,0.076,0.397-0.33,0.908-0.169c2.034-2.758,5.421-4.166,7.372-7.009
	c2.953-1.184,5.265-3.015,8.086-4.317c4.955-1.535,10.517-2.451,14.033-5.401c1.086-1.599,0.914-4.016,0.531-6.286
	c-0.479-1.385-1.992-2.312-2.694-3.24c-0.279-0.383-0.172-0.903-0.353-1.073c-0.118-0.118-0.745-0.098-1.086-0.363
	c-0.81-0.651-1.494-1.396-2.344-1.985c-1.962-1.362-3.976-3.035-5.925-3.769c-4.272-1.632-8.385,0.97-10.793,2.333
	c-1.191,0.669-1.737,1.162-2.513,1.619c-0.288,0.169-0.812,0.022-1.075,0.169c-0.439,0.256-0.716,0.845-1.088,1.088
	c-0.533,0.343-1.077,0.437-1.621,0.716c-3.165,1.659-6.721,3.867-10.249,4.312c-3.398,2.386-9.544,1.492-14.203,1.982
	c-2.172,0.236-4.293,0.35-6.293,0.542c-7.288,0.673-15.846,1.898-23.377,1.077c-9.578-1.043-17.409-7.136-27.872-5.934
	c-6.18,1.312-9.654,5.328-13.307,9.174c-1.46,3.323-3.804,5.784-4.498,9.883c-0.872,0.504-0.626,2.134-1.608,2.518
	c-0.479,3.599-2.716,5.443-3.43,8.811c-1.269,1.427-3.708,1.907-6.105,1.267c-0.384-0.756-1.235-1.055-2.163-1.267
	c-0.95-1.588-2.46-2.674-2.696-5.031c-0.201-2.13,0.5-4.558,0.183-7.188c-0.714-1.514-1.385-3.048-1.985-4.681
	c-1.978-1.456-3.173-3.59-6.284-3.949c-2.823-0.332-5.539,0.948-8.639,0.89c-2.75,0.6-5.477,1.24-7.544,2.518
	c-2.388,4.444-6.297,7.373-9.174,11.324c-2.216,1.864-4.473,3.688-5.936,6.297c-5.006,5.253-10.28,10.229-13.484,17.26
	c-4.114,4.114-7.716,11.56-14.918,12.764c-4.879,0.83-8.447-3.037-9.355-7.722v-3.604c0.504-2.431,2.217-3.653,3.048-5.753
	c0.703,0.161,0.297-0.787,1.086-0.533c2.973-6.509,8.28-10.664,8.088-20.317c-0.747,0.087-0.62-0.821-1.075-1.086
	c-3.048-1.813-8.812,0.934-11.87,0.903c-0.011-0.466-0.691-0.254-0.716-0.722c1.994-8.63,7.694-13.521,12.403-19.423
	c0.553,0.141,0.66-0.181,1.086-0.181c1.291-1.768,2.908-3.195,4.848-4.304c1.108-1.664,2.758-2.772,4.326-3.965
	c0.798-1.222,1.873-2.192,3.048-3.057c1.318-1.867,2.544-3.815,4.324-5.209c1.204-2.888,4.315-4.732,3.046-8.639
	c-0.147-0.473-0.841-1.122-1.258-1.791c-1.501-2.44-3.173-4.186-5.038-5.753c-2.888-1.026-5.869-2.58-9.526-2.518
	c-2.344,0.033-4.741,0.792-7.373,0.533c-5.113,0.524-9.908,1.354-14.566,2.333c-0.7,0.928-2.301,0.899-3.599,1.443
	c-0.564,0.252-1.023,0.87-1.619,1.086c-1.875,0.66-3.41,1.51-4.859,2.516c-1.193,0.838-1.777,1.117-2.152,2.513
	c-1.097,4.132,0.223,8.936,1.269,12.412c1.78,3.069,4.132,5.562,6.467,8.088c5.68,1.819,10.644,7.702,8.097,14.923
	c-0.713,0.375-1.193,0.983-1.438,1.802c-4.017,2.462-6.001,6.955-8.811,10.61c-1.973,8.142-4.816,15.375-7.375,22.652
	c-0.352,0.981-0.457,2.174-0.903,3.06c-0.671,1.362-1.822,2.469-2.335,3.78c-0.158,0.415,0,0.888-0.183,1.249
	c-0.179,0.35-0.723,0.52-0.895,0.903c-0.288,0.622-0.104,1.342-0.361,1.985c-0.713,1.735-2.504,3.269-3.601,5.026
	c-0.341,0.555-0.373,1.333-0.725,1.799c-0.339,0.462-1.03,0.767-1.438,1.26c-0.426,0.521-0.66,1.128-1.075,1.617
	c-1.909,2.281-4.815,4.094-6.661,6.117c-2.928,1.184-6.061,3.057-8.617,4.317c-1.994,0.968-3.849,1.789-5.583,2.694
	c-1.001,0.522-2.045,0.767-2.868,1.269c-0.872,0.511-1.989,1.554-3.057,1.791c-5.7,1.253-9.205-2.346-12.048-5.392
	c-0.778-2.016-1.822-3.006-1.267-5.573c0.104-0.501,0.339-1.46,0.542-1.982c0.022-0.053,0.489-0.084,0.544-0.183
	c0.127-0.223-0.107-0.658,0-0.892c0.415-0.959,0.832-1.512,1.255-2.344c0.426-0.823,0.343-1.46,0.727-2.154
	c0.147-0.274,0.743-0.404,0.894-0.725c0.821-1.779,1.32-3.666,1.619-5.392c0.736,0.203-0.02-1.106,0.894-0.711
	c0.555-3.59,2.973-5.305,3.421-8.992c4.166-7.106,8.427-14.106,13.839-19.967c2.034-4.808,6.17-7.493,6.114-14.383
	c-0.393-0.205-0.403-0.79-0.531-1.255c-1.289-0.97-2.208-2.132-3.773-2.524c-4.315-1.068-5.9,1.374-8.458,3.057
	c-2.77,1.84-6.061,3.847-8.266,5.945c-0.843,0.778-2.377,1.374-3.24,2.149c-0.203,0.183-0.129,0.66-0.364,0.895
	c-0.256,0.268-0.818,0.256-0.903,0.363c-0.248,0.339-0.096,0.787-0.353,1.075c-1.534,1.717-3.452,3.336-4.498,5.04
	c-0.232,0.395-0.105,1.184-0.361,1.621c-0.395,0.691-1.343,1.097-1.258,2.152c-2.333,2.228-3.624,5.488-5.753,7.914
	c-0.863,3.249-3.292,5.883-4.315,9.535c-0.404,1.418-0.468,3.189-0.894,4.67c-2.375,8.159-4.036,17.92-2.163,27.337
	c0.491,2.442,1.811,4.712,1.619,7.373c1.035,1.375,0.812,3.195,1.438,4.678c0.192,0.455,0.823,0.736,1.086,1.247
	c0.161,0.35,0.014,0.903,0.172,1.267c0.296,0.66,1.099,1.162,1.438,1.619c0.513,0.682,0.651,1.5,0.896,1.793
	c0.082,0.091,0.455-0.076,0.542,0c0.096,0.091-0.087,0.455,0,0.553c0.096,0.083,0.448-0.098,0.544,0
	c0.084,0.083-0.096,0.446,0,0.531c0.084,0.087,0.448-0.084,0.531,0c0.096,0.087-0.083,0.448,0,0.542
	c0.479,0.473,0.695,0.312,1.26,0.716c0.595,0.415,0.83,0.671,1.617,1.088c1.003,0.508,1.588,0.872,2.709,1.244
	c3.376,1.171,7.403,1.048,12.037,1.088c0.502-0.586,1.619-0.544,2.705-0.544c4.424-1.514,9.185-2.673,12.584-5.218
	c4.078-1.251,6.308-4.36,10.068-5.925c0.096-0.321,0.087-0.747,0.364-0.908c2.843-1.222,4.259-3.875,7.009-5.209
	c1.717-2.119,3.815-3.855,6.117-5.401c1.01-1.621,2.206-2.259,3.59-3.59c0.979-0.939,2.141-1.898,2.876-2.696
	c1.608-1.706,3.579-3.632,5.582-4.496c0.397,0.489,1.472,0.328,2.154,0.531c3.684,2.324-0.056,10.72,5.218,11.337
	c1.387,0.158,1.61-0.64,3.24-0.542c3.208-1.567,6.114-4.944,10.068-6.115c1.16-0.343,2.406-0.301,3.59-0.535
	c1.354-0.276,2.631-0.885,3.963-1.255c1.247-0.363,2.589-0.33,3.771-0.725c2.377-0.79,4.199-2.451,6.649-2.876
	c0.83-0.906,1.802-1.673,3.238-1.974c0.8-1.374,2.208-2.096,3.24-3.238c1.033-1.162,1.715-2.536,2.875-3.6
	c0-0.716,0.364-1.077,0.364-1.804c5.33-6.168,8.962-14.051,14.383-20.137c1.162-2.31,2.482-4.471,4.496-5.934
	c1.055-1.766,2.388-3.374,3.59-5.038c1.26-1.706,2.259-3.601,3.785-5.026c4.431,8.213,5.793,19.494,6.286,31.652
	c0.874,7.328,2.344,14.083,3.599,21.033c0.843,1.182,1.015,2.81,2.705,3.235c1.833,0.471,4.123-0.35,6.289-0.18
	c2.333-0.97,4.591-2.003,6.839-3.055c1.225-1.534,2.739-2.763,4.315-3.956c0.84-1.492,1.768-2.908,3.046-3.954
	c1.833-4.623,4.092-10.227,4.859-16.364c0.618-4.986-0.437-10.238,0.172-15.108c0.35-2.705,1.458-4.998,1.811-7.542
	c5.083-5.479,7.437-13.67,17.622-14.031c2.578,0.529,5.167,1.296,7.013,2.152c1.342,0.627,2.034,1.062,2.875,1.617
	c0.33,0.226,0.798,0.353,1.086,0.544c0.874,0.606,1.396,1.632,2.152,2.161c0.268,0.183,0.767,0.172,1.077,0.353
	c4.25,2.582,10.771,3.742,18.165,3.24c0.308-0.299,1.503-0.638,1.971-0.181c-1.224,3.077-3.057,6.478-4.496,9.174
	c-0.671,1.269-0.992,2.578-1.619,3.954c-0.598,1.332-1.662,2.415-2.154,3.778c-0.265,0.747-0.096,1.525-0.361,2.337
	c-0.201,0.66-0.736,1.162-0.896,1.8c-0.288,1.119-0.553,2.216-0.722,2.876c-0.257,1.046-0.011,2.078-0.181,3.24
	c-0.502,3.784-1.45,8.012-0.364,12.401c0.511,1.119,1.013,2.236,1.086,3.78c0.896,2.763,2.366,4.955,3.058,7.907
	c1.088,1.227,1.59,2.832,2.346,4.315c0.747,1.492,1.619,3.037,2.15,4.679c0.651,0.54,0.823,1.567,1.258,2.344
	c0.439,0.575,1.055,0.981,1.079,1.971c1.042,0.818,1.757,1.958,2.341,3.238c1.577,1.233,3.251,2.375,4.859,3.593
	c2.651,0.86,6.284,0.934,8.98,1.253c2.143-0.328,4.859-0.658,7.372-1.075c1.175-0.192,2.377-0.339,3.604-0.531
	c3.088-0.513,6.585-0.384,9.885-0.908c4.134-0.646,8.971-2.098,13.137-2.513c6.094-2.462,13.585-3.548,17.44-8.267
	c4.518-2.431,7.555-6.351,11.143-9.718c3.508-2.184,5.937-5.455,9.346-7.725c0.586-1.938,2.353-2.016,3.782-3.058
	c0.609-0.448,1.088-1.119,1.8-1.621c1.342-0.97,2.696-1.949,3.954-2.876c2.643-1.949,5.136-4.556,8.63-5.392
	c-0.107,0.823,0.065,1.378,0.361,1.795c-0.818,1.938-0.136,5.379-0.361,7.914c-0.223,0.576,0.586,0.127,0.361,0.725
	c0.31,9.205,0.439,18.622,7.918,20.667c0.914,1.534,2.716,1.278,4.312,1.802c1.162,0.373,2.355,1.233,3.591,1.617
	c2.397,0.725,4.411,0.959,7.202,1.441c3.261,0.555,6.851,1.706,10.965,1.075c10.461-5.412,12.57-19.2,16.366-31.282v-1.264
	c1.267-2.005,0.999-4.228,1.438-6.469c0.499-2.611,2.002-4.913,2.693-7.372c0.531-1.884,0.905-3.771,1.621-5.575
	c3.033-3.98,5.742-8.286,9.342-11.685c4.154-3.164,4.455,3.165,4.134,7.727c-0.374,5.432-1.875,11.507-1.257,15.817
	c5.677,7.992,3.517,23.825,8.458,32.551c0.716,0.062,1.015,0.544,1.429,0.907c3.39,0.881,7.554,0.544,10.078,0
	c4.219-0.918,8.759-1.996,12.222-3.24c1.727-0.618,2.663-0.908,3.602-1.619c4.986-0.767,6.764-4.741,9.888-7.375
	c3.108-5.218,6.349-10.313,10.249-14.745c1.044-0.042,1.489-0.671,2.696-0.535c4.547-3.535,5.122-11.067,10.607-13.667
	c3.497,5.018,3.604,13.424,4.859,20.681c0.671,1.233,1.173,2.665,1.438,4.313c2.346,3.037,4.891,5.882,9.707,6.469
	c-0.022,0.33,0.181,0.423,0.544,0.361c1.312,3.189,4.42,4.562,6.114,7.375c1.534,0.723,2.837,1.854,4.135,2.877
	c1.993,1.554,3.655,3.577,6.117,4.676c1.407,2.312,3.517,3.909,5.037,6.117c0.778,1.907,1.76,3.624,2.504,5.57v2.696
	c-3.878,5.894-11.038,8.5-17.621,11.687c-5.093,1.8-10.017,3.771-15.641,5.029c-2.578,1.503-5.669,1.917-8.811,2.705
	c-0.693,0.172-1.291,0.696-1.982,0.896c-0.544,0.161-1.195,0.051-1.791,0.183c-1.993,0.413-4.016,1.445-5.934,1.797
	c-0.883,0.149-1.833,0.02-2.696,0.171c-1.897,0.353-3.684,1.128-5.57,1.452c-3.111,0.52-6.329,0.497-9.535,0.89
	c-4.849,0.6-9.547,1.432-14.386,2.167c-7.466,1.117-16.064-0.172-23.735-0.544c-16.558-3.133-35.64-1.249-53.049-2.877
	c-2.696-0.256-5.421,0.127-7.903-0.181c-11.371-1.398-20.819-4.5-31.654-5.573c-2.973-1.554-7.64-1.17-10.793-1.804
	c0.268-0.031,0.671,0.067,0.722-0.179c-7.615-0.713-13.89-2.77-20.859-4.134c-6.554-2.876-14.044-5.167-22.652-5.934
	c-4.124-0.363-9.248,0.266-12.773,0c-5.936-0.448-14.95-0.031-20.319-0.533c-8.148-0.767-17.632,0.169-25.707,0.896
	c-4.496,0.393-8.483,0.446-12.231,0.894c-0.83,1.033-3.633,0.085-4.498,1.075c-1.958,0.149-3.128,0.363-4.674,0.725
	c-2.876,0.669-6.286,1.844-8.452,2.515c-1.681,0.522-3.365,0.424-5.218,0.714c-1.545,0.254-3.08,0.892-4.667,1.083
	c-1.021,0.121-2.172-0.114-3.238,0c-1.119,0.129-2.25,0.633-3.42,0.727c-0.979,0.074-2.059-0.127-3.058,0
	c-1.302,0.149-2.609,0.767-3.962,0.896c-9.91,0.948-19.979,0.636-29.482,3.057c-2.81-0.301-4.005,1.021-6.646,0.895
	c-0.535,0.8-2.292,0.35-2.888,1.086c-5.979,1.492-10.996,3.517-16.174,6.105c-1.365-0.096-1.684,0.838-3.24,0.544
	c-0.361,0.18-0.725,0.363-1.086,0.544c-3.283,0.486-7.203,0.339-10.965,0.35c-4.112,0.821-9.745,0.084-14.211,0.542
	c-0.575-0.223-0.136,0.584-0.711,0.361c-5.234,0.214-8.846,2.069-12.051,4.317c-2.442,0.437-4.54,2.301-6.833,3.048
	c-0.818,0.274-1.726,0.114-2.513,0.361c-0.575,0.192-1.043,0.703-1.63,0.903c-1.853,0.653-3.396,0.856-5.026,1.44
	c-1.706,0.598-3.497,1.182-5.213,1.789c-1.777,0.638-3.715,1.311-5.218,1.98c-3.421,1.559-6.349,4.094-9.526,5.756
	c-0.979,0.51-2.025,0.439-2.696,1.438H89.71c-0.778,0.618-1.523,1.247-2.888,1.258c-2.75,1.779-5.722,3.227-8.267,4.679
	c-1.012,0.575-2.154,0.894-3.24,1.434c-4.389,2.219-8.887,6.128-10.61,10.617c-2.707,7.074-0.798,18.047-4.315,24.267
	c-0.83,6.307-0.022,11.189,0.544,17.273c0.404,4.355-0.214,8.543-0.363,12.218c-0.192,4.882,2.961,8.822,2.334,13.311
	c-0.31,2.269-2.174,6.068-3.048,8.278c-0.403,0.979-0.564,1.969-0.905,2.876c-0.203,0.545-0.863,0.928-1.077,1.435
	c-0.415,0.983-0.691,2.312-1.086,3.411c-0.181,0.514-0.393,1.129-0.533,1.619c-0.66,2.257-1.278,3.9-1.802,5.754
	c-0.201,0.747-0.159,1.587-0.359,2.346c-1.942,7.424-5.298,14.51-5.211,23.738c0.66,3.472,0.841,7.432,2.335,10.065
	c1.735,6.597,4.194,12.466,6.112,18.881c0.256,3.049,1.398,5.198,1.982,7.905c0.511,0.224,0.832,0.607,1.077,1.089
	c3.548,0.678,5.455-2.34,5.934-4.137c0.428-1.586,0.403-3.824,0.725-5.765c1.768-10.857,1.652-22.567,2.515-33.807
	c0.584-7.704,0.711-14.722,1.436-21.927c1.131-3.376,1.588-7.403,3.06-10.428c3.133-2.365,7.353-5.671,12.762-3.602
	c1.534,1.523,2.856,3.261,4.146,5.038c3.198,9.93-2.005,21.546-0.905,32.356c0.575,5.711,2.888,9.781,6.117,13.322
	c1.427,0.06,2.15,0.827,3.952,0.528c0.905-0.469,1.802-0.959,3.057-1.075c0.79-1.248,1.909-2.165,3.06-3.057
	c0.787-1.735,1.65-3.39,3.057-4.498c0.511-2.302,1.822-3.813,3.058-5.393c-0.054-0.711,0.415-0.902,0.361-1.616
	c2.174-2.311,2.567-6.416,4.848-8.63c0.883,1.684,0.468,4.685,0.714,7.009c0.78,2.877,1.917,5.403,2.876,8.088
	c0.649,0.136,0.64,0.926,1.269,1.086c0.809,2.611,3.548,3.28,5.209,5.026c1.822,0.047,3.144,0.575,4.134,1.44
	c9.727,2.012,18.188-1.311,20.861-8.083c1.151-0.417,1.278-1.847,2.694-1.987c1.534-2.533,3.559-4.603,6.117-6.112
	c3.292-4.244,7.586-8.654,8.641-15.458c0.415-2.774,0.384-7.107-0.363-10.07c-1.097-4.505,0.852-6.262,3.421-7.915
	c1.788-1.161,4.366-1.971,7.372-1.257c2.516,2.033,3.068,6.616,3.046,10.42c-0.011,2.418-0.266,5.881-0.531,8.811
	c-1.015,10.911-1.833,23.66,2.513,30.575c1.17,0.886,2.377,0.279,3.601-0.181c0.502-0.691,0.97-1.427,1.789-1.799
	c-0.127-0.556,0.321-0.524,0.181-1.077c4.219-3.228,6.737-8.247,8.993-13.487c0.883-2.059,1.171-4.495,2.163-6.478
	c0.254-0.522,0.841-0.759,1.077-1.245c0.127-0.28-0.096-0.812,0-1.088c0.105-0.288,0.703-0.896,0.895-1.258
	c0.288-0.555,0.713-0.938,0.544-1.619c0.968-0.648,1.416-1.821,1.8-3.06c2.546-3.39,5.124-6.731,7.374-10.427
	c1.854-1.312,2.948-3.41,5.038-4.5c2.067,0.566,1.28,2.867,1.066,5.042c-0.288,3.164,0.181,7.009-0.533,8.811
	c0.011,0.276,0.457,0.138,0.363,0.53c-1.227,9.103,0.861,17.624,4.313,23.568c0.907,0.596,2.303,1.227,3.773,0.716
	c4.326-4.241,7.66-9.497,11.507-14.202c5.251-10.102,11.379-19.318,17.44-28.595c0.81-0.205,1.13-0.908,1.802-1.26h2.161
	c0.321,0.758,1.235,0.918,1.802,1.438c2.982,4.144,1.769,9.953,0.892,14.928c-0.232,1.343-0.595,2.933-0.722,4.315
	c-0.393,4.493,0.713,8.567,1.438,12.764c1.247,2.649,1.289,6.51,2.877,8.811c0.011,0.598,0.31,0.895,0.183,1.619
	c1.447,1.866,2.598,4.411,4.315,6.117c0.616,0.615,1.851,1.694,2.694,1.969c5.637,1.906,11.487-2.192,14.564-4.665
	c0.939-0.031,0.97-0.959,1.982-0.907c2.408-2.745,5.657-4.654,8.63-6.828c0.586-1.459,1.673-2.406,3.06-3.058
	c1.98-3.176,4.386-5.912,7.551-7.916c0.983,1.371,0.129,2.27,0,3.601c-0.373,3.602,1.12,6.944,2.335,8.994
	c0.403,0.666,0.542,1.649,0.905,2.149c0.725,1.01,2.045,1.938,3.057,2.696c0.459,0.352,0.843,0.82,1.258,1.088
	c4.964,3.249,10.793,2.259,17.44,1.253c2.346-1.137,4.839-2.109,7.373-3.055c1.342-1.343,3.124-2.279,4.859-3.238
	c0.758-1.802,2.186-3.025,3.048-4.85c2.459-5.188,2.206-12.528,5.401-16.544c1.416-1.791,5.091-2.387,7.553-3.24
	c0.598-0.201,1.012-0.681,1.621-0.896c1.095-0.384,2.29-0.255,3.235-0.542c1.63-0.5,2.589-1.661,4.487-1.619
	c5.308-3.773,10.749-5.273,15.472-8.993c4.059-0.736,6.944-4.197,11.506-5.026c0.277-0.618,1.213-0.596,1.619-1.089
	c3.867-1.17,7.49-2.575,12.048-3.057c3.198,1.065,4.016,4.498,4.679,8.097c-0.138,2.326,0.169,4.436,0,6.295
	c-0.629,6.661-3.912,10.635-5.584,15.644c-0.68-0.151-0.212,0.863-0.905,0.725c-0.502,2.919-2.493,5.664-3.046,8.982
	c-0.448,2.641-0.372,5.815,0.361,8.449c0.234,4.44,2.014,7.339,4.135,9.895c1.416,0.513,2.93,1.218,4.856,0.714
	c2.079-0.905,3.421-2.564,5.212-3.773c2.907-4.589,5.795-9.191,8.086-14.383c2.205-3.312,4.476-6.561,6.125-10.428
	c1.61-2.047,3.635-3.664,4.849-6.117c2.643-1.382,3.965-4.067,7.372-4.674c1.164,0.808,1.164,2.799,1.077,4.857
	c-0.609,2.141-1.343,4.165-1.972,6.286c-1.342,0.521-1.105,2.248-1.619,3.599c-0.341,0.905-1.086,1.559-1.258,2.166
	c-1.971,6.763,1.6,13.038,4.496,17.44c1.277,0.688,2.323,1.628,3.412,2.513c1.853,0.488,3.396,0.638,5.4,0.181
	c2.524-1.19,4.527-2.896,6.828-4.317c1.023-1.436,1.972-2.938,3.602-3.777c1.845-3.432,3.72-6.821,6.117-9.698
	c0.243,0.404,0.646,0.651,1.258,0.716c2.31,3.624,5.55,6.317,10.599,7.179c4.315,3.157,9.587,5.82,14.393,7.921
	c2.238,0.667,5.671,1.159,7.727,0c0.341-0.622,0.736-1.188,1.619-1.251c1.65-2.973,3.92-5.892,5.04-9.355
	c1.328-4.13,2.919-8.394,4.493-12.409c1.023-0.95,1.463-2.493,2.698-3.238c0.395-0.149,0.146-0.928,0.542-1.077
	c3.057-1.812,9.249-3.175,13.297-1.271c0.863,0.938,1.362,2.25,2.163,3.251c0.733,4.453,0.149,9.228-0.361,12.584
	c-0.384,2.533,0.553,5.115,1.086,6.286c0.105,0.254-0.127,0.669,0,0.905c0.736,1.416,2.417,2.992,3.229,3.771
	c0.308,0.311,0.499,0.905,0.722,1.089c1.312,1.041,3.613,1.675,5.403,2.149c1.693,0.469,4.442,0.81,6.647,0.375
	c3.325-0.658,5.136-2.333,7.009-3.965c3.645-3.153,7.022-6.668,10.068-10.066c1.43-3.369,4.18-5.414,6.48-7.916
	c0.615,0.033,0.756-0.429,1.256-0.533c2.27,0.778,3.633,2.484,5.209,3.949c-2.014,2.41-4.194,5.021-3.407,9.709
	c0.596,0.776,0.947,1.798,1.258,2.877c3.334,3.515,7.062,7.711,12.942,9.535c1.652,0.509,4.241,0.914,6.298,0.711
	c8.161-0.767,15.875-2.606,19.592-8.449c0.479-0.113,0.854-0.336,1.258-0.528c1.876,0.945,2.665,2.971,3.784,4.665
	c7.551,2.587,12.923-2.603,17.621-5.209c6.468-1.866,10.76-5.914,16.716-8.28c2.175,4.199,4.922,9.25,3.602,15.47
	c-0.98,4.613-5.318,7.93-7.553,10.979c-2.568,1.746-5.233,4.281-8.63,5.39c-0.747,0.243-1.567,0.172-2.346,0.363
	c-4.442,1.062-7.905,2.658-11.679,4.312c-1.969,0.85-4.354,1.414-5.762,2.161c-1.534,0.798-3.695,1.249-5.573,1.43
	c-0.172,0.296-0.563,0.395-0.894,0.544c-7.406,1.15-14.725,3.26-23.205,3.24c-6.989-0.027-14.361-1.178-21.395,0
	c-2.014,0.316-4.922,0.688-7.372,0.528c-2.686,0.876-6.616-0.083-9.899,0.544c-3.525,0.685-8.277,0.727-12.218,1.079
	c-7.16,0.658-14.268,0.181-22.835,0.181c-6.349,0-13.041,0.556-18.526,0c-7.104-0.716-13.988-0.172-21.937-0.533
	c-4.774-0.223-9.716,0.149-14.565-0.363c-4.059-0.435-9.353-0.129-13.668-0.544c-7.671-0.727-15.204-0.658-22.652-0.363
	c-1.67,0.907-5.345-0.192-6.839,0.907c-9.237,1.03-19.999,0.693-28.234-1.079c-5.432-1.19-11.484-1.938-16.896-2.524
	c-2.07-0.858-5.018-0.775-6.648-1.616c-4.551-0.373-9.504-1.332-14.033-1.805c-4.486-0.443-10.503-0.517-15.821-0.346
	c-3.227,0.094-6.627-0.109-9.353,0.346c-1.898,0.333-4.966,1.291-6.65,1.624c-2.005,0.395-4.177,0.383-6.117,0.907
	c-0.745,0.201-1.247,0.721-1.969,0.89c-4.85,1.1-9.6,1.644-14.395,2.168c-0.725,0.595-1.351,1.275-2.154,1.799
	c-0.5,1.727-0.5,3.39-0.181,5.391c1.13,1.503,2.239,1.373,4.134,1.969c0.629,0.203,1.184,0.716,1.8,0.907
	c0.789,0.243,1.61,0.161,2.515,0.361c1.548,0.354,2.95,1.151,4.315,1.437c10.581,2.177,22.607,2.888,33.443,4.669
	c1.271,0.215,2.335,0.821,3.602,1.084c2.972,0.622,6.351,0.794,9.707,1.079c11.016,0.959,21.704-0.586,31.641-0.544
	c1.322-0.716,3.164-0.296,4.859-0.353c6.137-0.214,14.62-0.457,19.967,0.353c7.648,1.171,18.997-0.99,28.949,0
	c9.033,0.905,17.044-0.598,24.811-1.072c2.698-0.163,5.787-0.229,8.461,0c4.867,0.412,9.716,0.646,14.383,1.072
	c1.769,0.17,4.347,0.201,6.467,0c4.061-0.363,9.003-0.445,13.67-1.072c3.494-0.473,6.873,0.252,9.705-0.183
	c4.061-0.622,8.973-0.663,13.309-1.26c5.688-0.776,11.419-1.97,17.088-3.058c1.023-0.203,2.036-0.342,3.049-0.544
	c1.512-0.295,3.237-1.265,4.858-1.617c2.589-0.544,5.89-0.767,8.639-0.896c6.576-0.297,14.395-0.374,20.317,0.181
	c9.036,0.846,16.771,0.13,24.271-1.797c3.365,0.113,6.721-1.303,10.43-1.443c0.737-0.688,2.504-0.372,3.24-1.072
	c3.322-0.403,5.996-1.44,9.174-1.984c0.308-0.455,0.945-0.596,1.788-0.529c2.634-1.4,6.117-1.933,8.458-3.601
	c7.46-2.07,12.031-7.034,18.521-10.071c0.051-0.841,0.862-0.938,1.438-1.255c1.438-1.555,2.725-3.271,4.132-4.861
	c0.916-2.981,2.388-7.127,1.972-10.247c0.831-1.757,0.233-3.996,0-5.937c-0.361-3.097-0.663-6.618-1.43-9.707
	c-0.384-1.5-1.597-3.373-2.161-4.312c-1.034-1.703-2.09-3.398-3.058-4.681c-0.662-0.869-1.503-2.266-1.802-3.058
	c-1.661-4.419,2.91-5.72,3.433-8.808c0.096-0.641,0.104-1.428,0-2.163c-0.448-2.868-3.176-6.873-4.498-9.165
	c-0.435-0.756-0.672-1.637-1.086-2.342c-0.161-0.254-0.725-0.426-0.896-0.716c-0.264-0.435-0.156-0.99-0.359-1.265
	c-0.716-0.938-2.25-1.373-2.877-2.332c-2.537-0.768-4.571-0.939-7.013,0c-3.706,2.798-6.87,5.976-7.733,11.326
	c-0.992,6.059,2.363,11.845,0.542,17.44c-2.161,1.692-4.762,3.835-7.021,5.218c-2.236,1.365-7.339,3.475-9.888,1.077
	c-0.648-1.334-1.055-2.899-0.903-5.031c1.106-2.798,2.246-5.55,3.78-7.914c1.289-4.156,0.823-11.486-0.725-14.927
	c-1.042-2.353-4.11-5.113-7.37-2.877c-2.067,1.416-3.593,4.552-3.773,7.735c-1.821,3.619-3.463,7.446-4.856,11.507
	c-1.164,1.185-2.047,2.62-2.518,4.496c-1.235,1.161-2.427,2.363-3.058,4.134c-3.748,2.728-6.338,6.614-12.049,7.372
	c-0.82-0.617-1.652-0.671-2.334-1.438c-2.194-2.46-1.363-7.13,1.079-8.63c3.548-1.323,6.391-4.273,8.639-6.84
	c1.021-1.162,2.248-2.163,2.877-3.24c0.233-0.393,0.106-1.18,0.35-1.607c0.217-0.375,0.728-0.384,0.908-0.723
	c0.318-0.631,0.606-1.697,0.894-2.518c1.907-5.274,1.534-12.645-0.894-17.077c-1.61-1.449-3.229-2.901-5.403-3.782h-4.123
	c-2.524,1.193-4.453,2.979-6.124,5.028c-0.332,2.17-1.715,3.602-2.518,5.582c-0.435,1.088-0.446,2.471-0.895,3.773
	c-0.595,1.694-1.896,4.229-3.237,5.753c-0.736,0.839-2.344,2.149-3.24,2.342c-3.483,0.727-6.295-2.003-7.011-4.315
	c-0.54-1.726-0.436-3.708-1.256-5.22c-0.147-0.255-0.767-0.649-1.086-1.073c-1.055-1.451-1.619-2.346-2.877-3.604
	c-1.771-1.767-3.068-2.591-5.03-3.773c-5.923,1.216-12.358,1.918-13.668,7.736c-0.725,10.144,9.471,11.985,7.372,21.755
	c-3.102,3.504-4.698,9.418-11.325,8.813c-3.707-2.228-4.73-7.459-3.782-12.595c0.459-2.46,1.757-5.252,2.344-8.086
	c0.457-2.248,0.553-4.625,0.532-7.203c-0.767-3.356-3.077-5.189-5.03-7.363c-2.333-0.499-3.932-0.424-5.763,0.535
	c-3.088,5.308-5.412,11.366-14.202,10.972c-4.175-1.671-7.863-4.547-11.144-8.267c-0.332-0.372-0.403-1.075-0.725-1.438
	c-0.158-0.191-0.627-0.104-0.905-0.359c-0.511-0.523-0.62-0.958-1.063-1.442c-0.886-0.928-1.897-1.394-3.06-2.161
	c-0.82-0.513-1.63-1.319-2.346-1.607c-2.387-0.995-7.413-0.118-10.428,0c-4.774,0.167-8.491,0.903-12.051,2.516
	c-4.144,3.757-7.276,8.54-10.965,12.76c-2.852,5.318-6.688,9.611-9.353,15.11c-1.715,0.979-2.109,3.28-4.85,3.237
	c-0.968-10.003,7.183-16.386,3.411-26.432c-2.94-4.551-7.49-10.124-15.107-7.725c-2.132,1.515-4.848,2.451-7.375,3.591
	c0.215,0.862-0.722,0.595-0.894,1.086c-1.907,0.544-2.812,2.098-4.496,2.865c-1.522,1.98-3.492,3.593-4.314,6.297
	c-0.821,2.705-0.52,5.613-2.163,7.554C428.322,369.173,428.215,367.939,428.119,367.083"/>
</svg>
